<svg xmlns="http://www.w3.org/2000/svg" viewBox="0 0 1705 241" fill="#1D2126">
<path d="M240 224.813C240 233.063 233.25 239.813 225 239.813H15C6.75 239.813 0 233.063 0 224.813V134.813C0 126.563 4.77 115.043 10.61 109.203L109.39 10.423C115.22 4.59304 124.77 4.59304 130.6 10.423L229.39 109.213C235.22 115.043 240 126.573 240 134.823V224.823V224.813Z" fill="#F2F4F9"/>
<path d="M229.39 109.203L130.61 10.423C124.78 4.59304 115.23 4.59304 109.4 10.423L10.61 109.203C4.78 115.033 0 126.563 0 134.813V224.813C0 233.063 6.75 239.813 15 239.813H107.27L66.64 199.183C64.55 199.903 62.32 200.313 60 200.313C48.7 200.313 39.5 191.113 39.5 179.813C39.5 168.513 48.7 159.313 60 159.313C71.3 159.313 80.5 168.513 80.5 179.813C80.5 182.143 80.09 184.373 79.37 186.463L111 218.093V102.213C104.2 98.873 99.5 91.893 99.5 83.823C99.5 72.523 108.7 63.323 120 63.323C131.3 63.323 140.5 72.523 140.5 83.823C140.5 91.893 135.8 98.873 129 102.213V183.483L160.46 152.023C159.84 150.063 159.5 147.983 159.5 145.823C159.5 134.523 168.7 125.323 180 125.323C191.3 125.323 200.5 134.523 200.5 145.823C200.5 157.123 191.3 166.323 180 166.323C177.5 166.323 175.12 165.853 172.91 165.033L129 208.943V239.823H225C233.25 239.823 240 233.073 240 224.823V134.823C240 126.573 235.23 115.053 229.39 109.213V109.203Z" fill="#18BCF2"/>
<path d="M320.04 46.6064H344.8V107.606L409.16 107.806V46.6064H434.16V192.606H409.16V129.826L344.8 129.626V192.626H320L320.04 46.6064Z"/>
<path d="M506.8 91.2364C521.9 91.2364 534.203 96.0864 543.71 105.786C553.217 115.486 557.97 127.956 557.97 143.196C557.97 158.363 553.217 170.796 543.71 180.496C534.203 190.196 521.9 195.046 506.8 195.046C491.56 195.046 479.19 190.196 469.69 180.496C460.19 170.796 455.437 158.363 455.43 143.196C455.43 127.863 460.183 115.38 469.69 105.746C479.197 96.113 491.567 91.2764 506.8 91.2364ZM506.8 173.756C514.873 173.756 521.433 170.91 526.48 165.216C531.527 159.523 534.047 152.116 534.04 142.996C534.04 133.89 531.52 126.516 526.48 120.876C521.44 115.236 514.88 112.423 506.8 112.436C498.533 112.436 491.867 115.25 486.8 120.876C481.733 126.503 479.193 133.876 479.18 142.996C479.18 152.116 481.72 159.523 486.8 165.216C491.88 170.91 498.547 173.756 506.8 173.756Z"/>
<path d="M726.68 129.826V192.616H703.68V133.426C703.68 126.6 701.923 121.266 698.41 117.426C694.897 113.586 690.11 111.663 684.05 111.656C677.61 111.656 672.467 113.756 668.62 117.956C664.773 122.156 662.853 128.033 662.86 135.586V192.586H639.67V133.426C639.67 126.6 637.96 121.266 634.54 117.426C631.12 113.586 626.383 111.663 620.33 111.656C613.89 111.656 608.717 113.756 604.81 117.956C600.903 122.156 598.95 128.033 598.95 135.586V192.586H575.32V93.9764H597.32L598.1 103.446C603.833 95.0464 613.167 90.8464 626.1 90.8464C633.653 90.8464 640.197 92.4097 645.73 95.5364C651.257 98.6586 655.662 103.441 658.32 109.206C660.708 103.505 664.931 98.7646 670.32 95.7364C675.88 92.4764 682.503 90.8464 690.19 90.8464C701.39 90.8464 710.277 94.2964 716.85 101.196C723.423 108.096 726.7 117.64 726.68 129.826Z"/>
<path d="M841.28 151.986H765.7C766.48 159.406 769.28 165.073 774.1 168.986C778.92 172.9 785.04 174.846 792.46 174.826C804.5 174.826 812.93 169.826 817.75 159.826L837.48 167.636C833.937 176.093 827.799 183.206 819.95 187.946C811.95 192.84 802.787 195.283 792.46 195.276C777.873 195.276 766.04 190.506 756.96 180.966C747.88 171.426 743.337 158.91 743.33 143.416C743.33 127.923 747.907 115.326 757.06 105.626C766.213 95.9264 778.173 91.0764 792.94 91.0764C807.46 91.0764 819.147 95.8597 828 105.426C836.853 114.993 841.28 127.593 841.28 143.226V151.986ZM766.09 135.376H817.26C816.8 127.376 814.377 121.273 809.99 117.066C805.603 112.86 799.693 110.78 792.26 110.826C784.927 110.826 778.927 112.956 774.26 117.216C769.593 121.476 766.87 127.53 766.09 135.376Z"/>
<path d="M993.53 158.626H937.97L925.97 192.626H900.38L953.11 46.6264H978.7L1031.53 192.626H1005.36L993.53 158.626ZM986.31 137.626L965.9 79.2264L945.29 137.626H986.31Z"/>
<path id="s" d="M1077.86 176.196C1082.74 176.196 1086.6 175.236 1089.43 173.316C1090.82 172.385 1091.94 171.108 1092.69 169.61C1093.43 168.113 1093.78 166.447 1093.68 164.776C1093.68 159.51 1090.13 155.993 1083.04 154.226L1069.46 150.616C1050.79 145.536 1041.46 135.933 1041.46 121.806C1041.46 112.76 1044.75 105.37 1051.32 99.6364C1057.89 93.903 1066.75 91.0397 1077.88 91.0464C1087.84 91.0464 1096.17 93.323 1102.88 97.8764C1106.12 99.984 1108.89 102.737 1111.01 105.963C1113.14 109.19 1114.57 112.82 1115.23 116.626L1094.04 121.626C1093.86 119.944 1093.33 118.317 1092.48 116.854C1091.63 115.391 1090.48 114.124 1089.11 113.136C1086.04 110.98 1082.36 109.881 1078.61 110.006C1074.38 110.006 1070.96 111.066 1068.36 113.186C1067.11 114.159 1066.1 115.412 1065.42 116.845C1064.74 118.278 1064.41 119.851 1064.45 121.436C1064.42 122.719 1064.67 123.994 1065.17 125.173C1065.68 126.353 1066.43 127.411 1067.38 128.276C1069.34 130.096 1072.37 131.56 1076.46 132.666L1089.84 135.986C1098.76 138.4 1105.56 142.046 1110.25 146.926C1112.56 149.322 1114.36 152.152 1115.57 155.253C1116.77 158.353 1117.34 161.662 1117.25 164.986C1117.25 174.24 1113.77 181.596 1106.8 187.056C1099.83 192.516 1090.23 195.253 1077.99 195.266C1066.66 195.266 1057.57 192.776 1050.74 187.796C1047.44 185.455 1044.65 182.454 1042.57 178.982C1040.48 175.51 1039.14 171.643 1038.63 167.626L1060.21 163.816C1060.34 165.633 1060.88 167.398 1061.78 168.978C1062.69 170.559 1063.94 171.915 1065.44 172.946C1068.6 175.116 1072.72 176.196 1077.86 176.196Z"/>
<use href="#s" x="89.6"/>
<path d="M1221.91 59.8264C1221.88 57.852 1222.24 55.8907 1222.97 54.0589C1223.71 52.2271 1224.81 50.5623 1226.2 49.1631C1227.6 47.764 1229.26 46.6592 1231.09 45.9142C1232.92 45.1692 1234.88 44.7993 1236.85 44.8264C1238.81 44.7962 1240.75 45.1706 1242.56 45.926C1244.36 46.6813 1246 47.8015 1247.35 49.2164C1250.14 52.0264 1251.71 55.826 1251.71 59.7864C1251.71 63.7467 1250.14 67.5464 1247.35 70.3564C1246 71.7865 1244.38 72.9207 1242.57 73.6868C1240.76 74.453 1238.81 74.8343 1236.85 74.8064C1234.88 74.8321 1232.93 74.45 1231.11 73.6842C1229.29 72.9184 1227.66 71.7854 1226.3 70.3564C1224.9 68.9882 1223.78 67.3499 1223.03 65.5403C1222.27 63.7306 1221.89 61.7869 1221.91 59.8264ZM1248.67 94.0064V192.636H1225.03V93.9764L1248.67 94.0064Z"/>
<use href="#s" x="228"/>
<path id="t" d="M1415.86 192.606C1410.23 193.964 1404.46 194.718 1398.67 194.856C1388.71 194.856 1380.95 192.12 1375.38 186.646C1369.81 181.173 1367.03 173.036 1367.03 162.236V113.996H1351.89V93.9964H1367.03V63.2164H1390.47V93.9764H1413.22V113.976H1390.47V157.976C1390.47 168.643 1394.6 173.976 1402.87 173.976C1406.29 173.833 1409.67 173.14 1412.87 171.926L1415.86 192.606Z"/>
<path d="M1495.01 192.606C1494.16 188.914 1493.6 185.158 1493.35 181.376C1490.28 185.78 1486.08 189.273 1481.19 191.486C1475.48 194.09 1469.26 195.375 1462.98 195.246C1452.17 195.246 1443.5 192.366 1436.98 186.606C1430.46 180.846 1427.21 173.05 1427.22 163.216C1427.22 153.576 1430.43 146.04 1436.84 140.606C1443.25 135.173 1452.02 132.453 1463.15 132.446H1492.8V128.646C1492.8 122.46 1490.99 117.836 1487.38 114.776C1483.77 111.716 1478.71 110.186 1472.2 110.186C1460.68 110.186 1452.41 115.003 1447.39 124.636L1430.21 114.576C1438.54 98.8897 1452.96 91.0464 1473.47 91.0464C1485.9 91.0464 1496.08 94.2364 1504.03 100.616C1511.98 106.996 1515.98 117.38 1516.03 131.766V171.026C1516.03 182.153 1516.61 189.346 1517.78 192.606H1495.01ZM1493.01 148.756H1468.69C1463.16 148.756 1458.87 150.026 1455.8 152.566C1454.28 153.837 1453.08 155.441 1452.28 157.254C1451.48 159.066 1451.12 161.039 1451.21 163.016C1451.21 167.636 1452.77 171.153 1455.9 173.566C1459.03 175.976 1463.48 177.176 1469.28 177.176C1476.24 177.176 1481.94 174.98 1486.37 170.586C1490.8 166.193 1493.02 159.666 1493.01 151.006V148.756Z"/>
<path d="M1629.53 131.766V192.606H1606V136.826C1606 127.446 1603.79 121.033 1599.36 117.586C1595.18 114.155 1589.92 112.323 1584.51 112.416C1581.37 112.323 1578.24 112.853 1575.31 113.975C1572.38 115.098 1569.69 116.791 1567.42 118.956C1562.87 123.316 1560.6 129.533 1560.59 137.606V192.606H1536.96V93.9764H1559.12L1559.9 104.616C1562.96 100.236 1567.19 96.803 1572.11 94.7064C1577.6 92.2344 1583.57 90.9856 1589.59 91.0464C1602.35 91.0464 1612.2 94.5764 1619.13 101.636C1626.06 108.696 1629.53 118.74 1629.53 131.766Z"/>
<use href="#t" x="289.12"/>
</svg>