<svg xmlns="http://www.w3.org/2000/svg" viewBox="0 225 652 193" fill="#1192CF">
<path fill="#F49500" d="M189.4,323.1c0-36.5-31-66.1-69.3-66.1c-38.3,0-69.3,29.6-69.3,66.1c0,36.5,31,66.1,69.3,66.1c38.3,0,69.3-29.6,69.3-66.1"/>
<path fill="#FCC000" id="O" d="M127.3,251.6c0,14.2-11.5,25.8-25.8,25.8c-14.2,0-25.8-11.5-25.8-25.8c0-14.2,11.5-25.8,25.8-25.8c14.2,0,25.8,11.5,25.8,25.8"/>
<use href="#O" x="71.6" y="21.9"/>
<use href="#O" x="96.2" y="89.9"/>
<use href="#O" x="41.6" y="139.7"/>
<use href="#O" x="-33" y="121.8"/>
<use href="#O" x="-53.8" y="51.5"/>
<polygon fill="#03A239" points="125.3,308 123.4,301.4 119.4,309 105.1,259.6 112.3,263.8 110.5,257.5 100.5,252 94.9,262 96.8,268.3 100.6,260.9 115,310.3 107.6,306 109.5,312.6 119.6,318"/>
<polygon fill="#03A239" points="137.7,320.1 142.1,316 134.1,315.4 167.7,284.3 167.7,292.1 171.9,288.2 171.7,277.3 160.9,276.3 156.7,280.3 164.5,280.8 130.9,312 131,303.9 126.5,308.1 126.8,319"/>
<polygon fill="#03A239" points="82.1,373.4 86.6,368.9 78.4,368.7 112.1,335.5 112.2,343.5 116.5,339.3 116.2,328.2 105.1,327.7 100.9,331.9 108.8,332.1 75.1,365.4 75,357.2 70.5,361.6 71,372.7"/>
<polygon fill="#03A239" points="108.7,312.2 102.3,310.2 106.4,317.6 58.1,302.8 65.4,299 59.3,297.1 49.3,302.5 54.6,312.6 60.7,314.5 56.8,307.3 105,322.1 97.5,325.9 103.9,327.9 113.9,322.4"/>
<polygon fill="#03A239" points="147.9,378.9 145.9,373 142.1,380.2 127.4,336 134.6,339.3 132.7,333.7 122.6,329.3 117.3,338.8 119.2,344.4 122.9,337.5 137.7,381.7 130.3,378.2 132.3,384.1 142.4,388.5"/>
<polygon fill="#03A239" points="183.6,332.6 177.6,330.8 181.3,338.1 136.5,325.1 143.3,321.1 137.7,319.5 128.3,325.2 133.2,335 138.8,336.7 135.2,329.6 180,342.5 173,346.6 179,348.4 188.3,342.5"/>
<polygon points="129.6,357.5 143.8,286.8 176.2,286.8 190.8,329.3 222.5,286.8 255,286.8 240.6,357.5 220.6,357.5 230.4,307.5 193.3,357.5 177.6,357.5 159.9,307.6 150.1,357.5"/>
<path d="M320.1,310.8c-2.8-2.8-12.6-4-24-4c-17.8,0-26.6,2.9-31.9,8.2c-5.3,5.3-7.9,25.3-7.9,27.5c0,2.1-0.8,7.8,3.1,11.7c3.9,3.9,13.3,4.2,27.8,4.2c14.5,0,22.5-2.5,27.9-6.2c5.4-3.6,8.6-22.7,9.2-28.6C324.8,317.6,322.9,313.5,320.1,310.8 M305.9,333.1c-1.5,5.3-2.1,7.5-3.9,8.8c-1.8,1.3-11,2.2-13,2.2c-2,0-11.8-0.2-13.8-2.2c-2-2,1-16.9,3.9-18.5c2.9-1.6,8.9-2.1,13.2-2c6.6,0.1,11.6,0.3,13,1.7C306.7,324.7,307.4,327.8,305.9,333.1"/>
<path d="M389,286.8l-5.5,28.1c-2.6-6.2-7.5-8.1-18-8.1c-17.8,0-20.9,2.9-26.2,8.2s-7.9,25.3-7.9,27.5c0,2.1-0.8,7.8,3.1,11.7c3.9,3.9,7,4.2,21.1,4.2c13.6,0,18.5-4.6,20.9-7.7l-1.3,6.8h17.8l13.8-70.7H389z M376,342c-1.8,1.3-11,2.2-13.1,2.2s-11.8-0.2-13.8-2.2c-2-2,1-16.9,3.9-18.5c2.9-1.6,8.9-2.1,13.2-2c6.6,0.1,11.6,0.3,13.1,1.7c0.9,0.9,1.5,2.6,1.4,5.1l-1.2,5.9C378.3,338.8,377.7,340.8,376,342"/>
<path d="M472.3,309.8c-2.2-1.9-7.8-3-18.4-3c-13.3,0-18.8,2.7-23,8.4l5.5-28.3H419L405,357.5h17.7l1.4-7.2c2.1,4.9,5.3,8.1,20,8.1c14.5,0,18.4-0.7,23-5.4c4.9-4.9,8.7-23.4,9.2-29.4C476.8,317.7,476,312.9,472.3,309.8 M458.4,333.1c-1.5,5.3-2.1,7.5-3.9,8.8c-1.8,1.3-11,2.2-13,2.2c-2,0-11.8-0.2-13.8-2.2c-2-2,1-16.9,3.9-18.5c2.9-1.6,8.9-2.1,13.2-2c6.6,0.1,11.6,0.3,13,1.7C459.3,324.7,459.9,327.8,458.4,333.1"/>
<path d="M536.2,307.4h-0.7c0,0-4.7,27.5-9,31.8c-4.3,4.3-10.6,4.6-12.8,4.6c-2.1,0-8.2-0.9-10.4-3.1c-2.7-2.8,3.2-28.7,4.3-33.3h-17.3c0,0-7,31.7-7,36.6c0,3.9,0.4,11.1,11.2,13.6c2.5,0.6,5.5,0.9,9.2,0.9c2.9,0,5.6-0.3,8-0.9c8.4-2,13.7-6.8,16.6-10.4l-2,10.4h16.5l9.8-50.1h0H536.2z"/>
<path d="M605.6,323h16.1c0,0,0.3-3.9,0.3-5.5c0-1.7,0.3-3.9-3.1-7.3c-3.4-3.4-21.8-3.3-24.9-3.3c-3.1,0-19.8-0.3-24.5,3.6c-4,3.2-7.3,7.4-7.3,15.6c0,8.3,5.5,11.5,16.4,11.5h19.5c2.7,0,6.1,0.8,6.1,3.3c0,2.5-1.9,5.9-8.7,5.9h-12.9c-3.1,0-8.7-0.5-8.7-4v-1.6h-16.1c0,0-0.8,2.8-0.8,5.2c0,2.4,0.4,5.5,3.1,8.2c2.7,2.7,14,3.9,25.6,3.9c11.6,0,24.1-0.5,28.3-4.8c4.3-4.3,6.2-12.3,6.2-16.5c0-4.2-1.4-6.2-2.8-7.6c-1.3-1.3-5.3-3.7-23-3.7c-15.8,0-16.3-1.5-16.3-3c0-1.2,0.2-4.2,12.7-4.2C603.3,318.6,605.6,319.2,605.6,323"/>
</svg>